<?xml version="1.0" encoding="UTF-8" standalone="no"?>
<!-- Created with Inkscape (http://www.inkscape.org/) -->

<svg
   xmlns:dc="http://purl.org/dc/elements/1.1/"
   xmlns:cc="http://creativecommons.org/ns#"
   xmlns:rdf="http://www.w3.org/1999/02/22-rdf-syntax-ns#"
   xmlns:svg="http://www.w3.org/2000/svg"
   xmlns="http://www.w3.org/2000/svg"
   xmlns:sodipodi="http://sodipodi.sourceforge.net/DTD/sodipodi-0.dtd"
   xmlns:inkscape="http://www.inkscape.org/namespaces/inkscape"
   width="715.1875"
   height="125.23147"
   id="svg2"
   version="1.1"
   inkscape:version="0.48.3.1 r9886"
   sodipodi:docname="signature-red.svg">
  <defs
     id="defs4" />
  <sodipodi:namedview
     id="base"
     pagecolor="#ffffff"
     bordercolor="#666666"
     borderopacity="1.0"
     inkscape:pageopacity="0.0"
     inkscape:pageshadow="2"
     inkscape:zoom="0.95955484"
     inkscape:cx="379.0888"
     inkscape:cy="51.870929"
     inkscape:document-units="px"
     inkscape:current-layer="layer1"
     showgrid="false"
     inkscape:window-width="1301"
     inkscape:window-height="744"
     inkscape:window-x="65"
     inkscape:window-y="24"
     inkscape:window-maximized="1"
     fit-margin-top="0"
     fit-margin-left="0"
     fit-margin-right="0"
     fit-margin-bottom="0" />
  <metadata
     id="metadata7">
    <rdf:RDF>
      <cc:Work
         rdf:about="">
        <dc:format>image/svg+xml</dc:format>
        <dc:type
           rdf:resource="http://purl.org/dc/dcmitype/StillImage" />
        <dc:title></dc:title>
      </cc:Work>
    </rdf:RDF>
  </metadata>
  <g
     inkscape:groupmode="layer"
     id="layer2"
     inkscape:label="Layer2"
     style="display:inline" />
  <g
     inkscape:label="Layer 1"
     inkscape:groupmode="layer"
     id="layer1"
     transform="translate(-11.40625,-43.924782)"
     style="display:inline">
    <path
       style="fill:#020000;fill-opacity:0.69863018;stroke:none"
       id="path2985-4"
       d="m 15.508745,170.19849 c 0.89693,-3.89412 2.31442,-7.61353 3.76061,-11.30134 3.91785,-9.47081 8.6008,-18.53557 13.54626,-27.42369 6.22088,-11.02188 12.98328,-21.70122 20.43912,-31.80711 1.6113,-2.18401 3.28276,-4.31612 4.92414,-6.47417 7.93737,-10.03245 16.4899,-19.65575 26.39416,-27.48996 1.6899,-1.33669 3.46835,-2.53937 5.20253,-3.80905 9.29023,-5.78054 18.901975,-13.2749 30.100635,-13.95247 3.80972,-0.2305 4.70349,0.21141 8.33862,0.99519 1.18835,0.53025 2.43224,0.93528 3.56506,1.59075 3.34709,1.93668 6.1549,4.954 8.08113,8.45513 1.75176,3.18401 1.86031,4.34078 2.8469,7.85468 1.14556,5.94573 0.71601,11.9818 -1.04806,17.74207 -1.22776,4.00908 -1.88357,4.91214 -3.74754,8.60016 -3.20564,5.40438 -7.41027,10.0106 -12.23628,13.76504 -5.04153,3.92208 -14.58,9.15407 -18.06919,11.25253 -5.21344,2.31414 -10.942515,3.80278 -16.588505,2.61466 -0.84783,-0.17841 -1.66423,-0.49897 -2.49634,-0.74846 -0.69775,-0.35005 -1.43065,-0.62871 -2.09323,-1.05015 -2.10697,-1.34017 -3.83805,-3.57267 -4.63459,-6.06311 -0.15679,-0.4902 -0.2284,-1.00714 -0.3426,-1.51071 -0.009,-0.45672 -0.0748,-0.91615 -0.0275,-1.37013 0.55347,-5.30545 11.7105,-8.74296 12.90817,-9.42965 0.7484,-0.4291 3.15485,1.85413 3.60223,2.27777 3.153565,3.90579 4.795105,8.87901 6.543435,13.61851 1.75368,4.82599 3.4464,9.70751 5.71581,14.29197 0.44147,0.89185 0.93915,1.75032 1.40873,2.62548 1.94907,3.31197 4.20207,6.46864 7.00134,9.01177 1.77286,1.61064 2.47323,1.97258 4.44497,3.29356 3.2367,1.93579 6.7234,3.30668 10.42888,3.69416 2.49303,0.26069 3.43591,0.0922 5.9406,-0.0692 4.46141,-0.54345 8.73996,-2.06996 12.76248,-4.17971 1.10846,-0.58138 4.33941,-2.52086 3.2715,-1.85778 -2.58232,1.60339 -5.21075,3.11973 -7.81612,4.67959 5.31144,-3.82745 10.25161,-8.27066 14.53583,-13.38049 0.77932,-0.92951 1.50424,-1.90994 2.25636,-2.8649 2.60965,-3.64966 5.2015,-7.5027 6.46381,-11.96029 0.14982,-0.52906 0.24167,-1.07506 0.3625,-1.61259 0.0314,-0.5874 0.20252,-1.45258 -0.14562,-2.0268 -0.62729,-1.03468 -2.72281,0.19514 -3.3346,0.53297 -5.05721,3.559 2.04984,-1.48732 8.98881,-5.29377 0.58215,-0.31935 -1.01288,0.88983 -1.4843,1.37599 -1.69609,1.7491 -2.97288,3.73989 -4.25342,5.84016 -1.65845,3.12691 -3.11563,6.39831 -4.08621,9.85065 -0.61136,2.17461 -0.68023,2.85797 -1.07299,5.05504 -0.52216,3.34693 -0.75756,6.82564 0.31524,10.08495 0.16151,0.49066 0.39131,0.95228 0.58696,1.42843 1.94266,3.05223 3.89012,2.99563 6.9944,2.2666 0.5305,-0.22092 1.07258,-0.41214 1.59149,-0.66276 0.56771,-0.27418 1.10949,-0.60642 1.66424,-0.90963 -3.31399,2.01319 -6.58219,4.11578 -9.94196,6.03957 -0.63637,0.36438 1.19213,-0.87391 1.75823,-1.35361 1.5525,-1.31556 1.92291,-1.81881 3.30629,-3.33506 2.96435,-3.42148 4.83955,-7.40724 6.11527,-11.83014 0.38131,-1.65461 0.58766,-3.34557 0.56138,-5.05091 -0.0174,-1.13062 -0.1215,-2.19349 -0.0301,-3.32436 1.86168,-5.7763 0.33578,-1.66404 13.24926,-8.33358 0.33966,-0.17542 0.74167,0.14587 1.11444,0.20583 1.58387,0.25477 3.1789,0.39487 4.77385,0.53854 5.19628,0.40344 10.29659,-0.7222 15.32111,-1.99699 6.02654,-1.67462 11.68241,-4.49719 17.14701,-7.64375 3.98802,-2.6277 14.12162,-8.32692 -4.61153,2.79035 -0.61806,0.36679 1.18835,-0.8196 1.77717,-1.23817 0.48819,-0.34704 2.3803,-1.73503 2.91998,-2.13025 4.95954,-3.43297 5.29298,-3.69395 14.13141,-8.85144 0.98838,-0.57675 2.25415,0.17528 2.92567,0.91873 0.26005,0.28791 0.44684,0.64277 0.67026,0.96416 1.52468,3.42398 1.58028,7.29118 1.5442,11.01085 -0.16391,3.56485 -0.52085,7.1235 -1.36889,10.58203 -0.5951,2.42696 -0.78953,2.80743 -1.60491,5.15079 -1.59394,3.96781 -3.82507,7.61019 -6.8657,10.47425 -0.52966,0.4989 -1.10787,0.93508 -1.6618,1.40262 -6.25203,3.97117 -12.66957,10.52771 -20.3908,9.8062 -0.55438,-0.0518 -1.09862,-0.19109 -1.64792,-0.28664 -3.14462,-0.81088 -5.36301,-3.1263 -7.27926,-5.78123 -0.60704,-0.97321 -1.24299,-1.92888 -1.80202,-2.93579 -0.10395,-0.18723 -0.47715,-0.46734 -0.29812,-0.57024 13.01795,-7.48187 11.1029,-11.37507 13.35388,-5.5779 1.3836,3.62406 2.98995,7.14022 4.90715,10.4721 1.67407,2.84696 3.64381,5.63221 6.51673,7.17184 0.50975,0.27318 1.0549,0.4625 1.58236,0.69375 4.19111,1.2357 8.33273,-0.26171 12.23856,-1.87324 0.81133,-0.40528 1.64017,-0.77244 2.43401,-1.21585 0.8479,-0.47361 3.32344,-2.02859 2.48669,-1.53266 -2.91742,1.7291 -5.73434,3.66258 -8.72896,5.23233 -0.96387,0.50526 1.75843,-1.32051 2.60779,-2.02366 2.30295,-1.90652 3.01876,-2.69799 5.18244,-4.81799 5.23468,-5.09336 9.5711,-11.0518 13.56515,-17.27187 2.92188,-4.65064 5.39839,-9.58657 7.08446,-14.89848 0.23834,-1.04334 0.5032,-1.79016 0.4593,-2.84521 -0.007,-0.1864 0.0227,-0.49269 -0.14609,-0.53734 -0.14602,-0.0386 -0.24678,0.53935 -0.11131,0.46926 11.27629,-5.8329 15.30148,-9.83554 11.06377,-5.76452 -2.20925,3.31184 -2.67458,7.40449 -3.06255,11.34659 -0.21064,3.59436 -0.49648,7.27205 0.14649,10.83976 0.11037,0.61243 0.28468,1.20959 0.42703,1.81439 0.80631,2.46984 1.96284,4.93801 3.97139,6.53431 0.35521,0.28231 0.75375,0.49572 1.13063,0.74358 2.9068,1.46652 5.70519,1.4209 8.81056,0.90487 1.99428,-0.43718 3.94124,-1.09449 5.81217,-1.95515 4.17355,-1.91992 12.9696,-7.65526 -5.17579,3.46969 4.66377,-2.99944 8.65148,-6.92828 12.24225,-11.27198 2.40746,-3.14019 4.55068,-6.61307 5.80983,-10.4776 0.19803,-0.60779 0.33211,-1.23744 0.49817,-1.85615 0.46189,-2.74041 0.62274,-5.05234 -1.00653,-7.36393 -1.71056,-1.36233 -3.07207,-1.10502 -4.81749,-0.0144 22.80802,-12.69751 12.1954,-8.66615 9.13785,-5.06052 -1.13208,1.335 -1.8773,2.89058 -2.633,4.48397 -1.8134,4.40558 -2.82717,9.12926 -3.68836,13.83752 -0.60597,4.24916 -0.85642,8.59387 -0.29732,12.86751 0.10794,0.82512 0.27743,1.63959 0.41614,2.4594 0.6418,3.11861 1.72394,6.13642 3.38802,8.79774 1.04577,1.67246 1.59592,2.23102 2.84475,3.73638 2.78201,3.01513 6.11427,5.36776 9.7599,7.00306 0.8046,0.36092 1.63268,0.65836 2.44901,0.98754 4.57542,1.68413 9.42092,2.45334 14.25718,2.28801 1.07317,-0.0367 2.14236,-0.15805 3.21355,-0.23707 6.1237,-0.79909 12.02803,-2.98402 17.528,-5.94931 1.28208,-0.69123 2.51885,-1.47526 3.77827,-2.2129 0,0 -9.87101,8.52245 -9.87101,8.52245 l 0,0 c -1.30048,0.73314 -2.5795,1.51191 -3.90144,2.19943 -5.69031,2.95945 -11.77903,5.11777 -18.09112,5.77548 -1.10187,0.0597 -2.20244,0.16265 -3.3056,0.17914 -4.99681,0.0747 -9.9728,-0.78529 -14.68347,-2.57399 -0.84586,-0.35099 -1.70432,-0.66882 -2.53758,-1.05295 -3.80076,-1.75218 -7.26778,-4.23126 -10.13197,-7.44284 -1.3212,-1.60214 -1.88429,-2.17526 -2.99363,-3.9558 -1.75124,-2.81086 -2.8989,-5.98018 -3.58307,-9.27025 -0.39639,-2.24275 -0.5724,-2.89686 -0.73299,-5.18405 -0.2491,-3.54794 -0.0201,-7.1177 0.4167,-10.63661 0.8151,-4.74897 1.7275,-9.50838 3.30077,-14.04565 3.79701,-9.43069 6.20817,-8.30704 16.97417,-14.81677 0.34193,-0.095 0.67631,-0.23018 1.02579,-0.28506 1.85548,-0.29136 3.6039,0.54858 4.86454,1.9692 0.20261,0.33647 0.4354,0.65411 0.60782,1.00944 1.15544,2.38106 1.10066,5.11976 0.65042,7.68739 -0.1711,0.67575 -0.3106,1.36165 -0.51329,2.02726 -1.23211,4.04601 -3.40018,7.71354 -5.84078,11.03237 -3.52705,4.44184 -7.4275,8.50376 -12.02608,11.67132 -5.50349,3.41847 -13.23122,9.14546 -20.12357,11.44666 -1.7586,0.58716 -2.21888,0.62836 -4.00269,0.99716 -3.36514,0.33761 -6.49717,0.21266 -9.48953,-1.677 -0.41224,-0.31644 -0.84715,-0.60136 -1.23672,-0.94933 -2.12348,-1.8967 -3.39838,-4.58538 -4.24546,-7.35547 -0.42636,-1.86484 -0.55238,-2.14426 -0.73823,-4.08922 -0.2882,-3.01595 -0.0852,-6.05393 0.0718,-9.06985 0.31531,-4.05235 0.67521,-8.18799 2.37996,-11.88855 2.59389,-5.82596 0.84815,-2.49691 13.6026,-8.65139 0.31771,-0.15331 0.53857,0.50407 0.6937,0.83878 0.61084,1.31793 -0.21194,3.09298 -0.41082,4.35991 -1.84836,5.49361 -4.39714,10.64304 -7.44087,15.48686 -4.01083,6.27574 -8.29089,12.36296 -13.4991,17.5715 -2.04008,2.09521 -2.85176,3.01265 -5.02346,4.91768 -5.21471,4.57437 -9.60225,6.66443 -16.39427,10.92163 -0.85092,0.53336 -1.72335,1.02866 -2.61082,1.48834 -0.83586,0.43294 -1.70339,0.79161 -2.55509,1.18742 -4.25592,1.58514 -8.68188,2.89244 -13.09288,1.15148 -0.5622,-0.29294 -1.14569,-0.5429 -1.6866,-0.87883 -2.92728,-1.81797 -4.96793,-4.77902 -6.73908,-7.79065 -1.95347,-3.3465 -3.58305,-6.87452 -5.33494,-10.34399 -3.09775,-5.1161 -0.51653,-0.25099 11.80787,-8.45205 0.13475,-0.0897 -0.2743,-0.44893 -0.37347,-0.31616 -0.14018,0.18768 0.4368,1.20012 0.69462,1.64819 0.22217,0.38613 0.46614,0.75731 0.69922,1.13596 1.76778,2.47889 3.63725,4.30075 6.61044,4.84909 1.63788,0.14626 3.14939,0.15342 4.75567,-0.31639 4.13217,-1.2086 9.97733,-6.10477 -8.34964,5.7303 -0.57519,0.37144 1.1796,-0.68805 1.7694,-1.03207 0.58887,-0.42008 1.20611,-0.7976 1.7666,-1.26024 3.15382,-2.6033 5.51381,-6.08427 7.20426,-9.91946 0.31006,-0.81561 0.64891,-1.61929 0.93016,-2.44684 1.39165,-4.09483 2.04716,-8.39822 2.13904,-12.74865 0.0122,-3.33409 -0.0689,-6.8161 -1.52405,-9.84778 -0.5054,-0.56712 -0.81938,-0.89046 -1.5916,-0.62412 -0.27388,0.0944 -1.03257,0.54219 -0.78482,0.38529 4.68351,-2.96615 15.23311,-9.4575 9.4939,-5.92431 -1.64165,1.16903 -3.24781,2.46162 -4.94164,3.53953 -6.03067,3.83777 -12.08131,7.66955 -18.23123,11.292 -5.54379,3.05093 -11.26256,5.78576 -17.34575,7.35026 -5.2336,1.27106 -10.53608,2.33412 -15.93178,1.94597 -1.65432,-0.10574 -3.3505,-0.3313 -5.00961,-0.30673 -0.35805,0.005 -1.37146,0.31026 -1.06994,0.10296 10.76954,-7.40451 15.95761,-7.14073 10.77978,-7.27322 -0.56229,1.23479 -0.3734,1.78651 -0.37565,3.15445 -0.002,1.51181 -0.0138,1.98054 -0.22426,3.5081 -0.0916,0.66461 -0.22063,1.32264 -0.33094,1.98395 -1.24082,4.55859 -3.07906,8.87605 -5.99444,12.50535 -5.80648,6.97579 -8.62003,7.55724 -18.25728,13.35057 -0.57127,0.34341 -1.19306,0.58475 -1.81208,0.81379 -0.57442,0.21252 -1.17349,0.33862 -1.76024,0.50794 -0.57385,0.0639 -1.14465,0.18546 -1.72154,0.1916 -2.75237,0.0292 -4.95194,-1.55733 -6.29365,-4.06842 -0.21773,-0.5469 -0.47562,-1.07733 -0.65321,-1.6407 -1.10336,-3.50027 -0.89248,-7.2309 -0.33002,-10.8142 0.35447,-1.99447 0.5445,-3.27892 1.05382,-5.25035 0.91511,-3.54212 2.3409,-6.89866 3.92844,-10.14526 0.41441,-0.76656 0.80059,-1.55153 1.24325,-2.2997 4.3613,-7.37138 11.1125,-10.9672 18.72441,-14.59124 1.11181,-0.26117 1.63801,-0.54888 2.76156,-0.21223 1.96753,0.58954 2.44849,2.52453 2.18092,4.4648 -0.13757,0.60826 -0.23783,1.22767 -0.41272,1.82479 -1.37935,4.70931 -4.09977,8.80461 -6.85438,12.68517 -0.76427,0.99032 -1.50137,2.00554 -2.29283,2.97097 -4.26155,5.1983 -9.18474,9.72837 -14.44147,13.72551 -7.69156,4.84433 -15.5571,10.86392 -24.36556,13.47206 -2.9821,0.88299 -3.48283,0.83787 -6.50368,1.25414 -2.61545,0.0823 -3.57061,0.22368 -6.16766,-0.13406 -3.83096,-0.52772 -7.42526,-2.06872 -10.74965,-4.13666 -2.0649,-1.42311 -2.75912,-1.78409 -4.60473,-3.52013 -2.84688,-2.67788 -5.16103,-5.96594 -7.15538,-9.39697 -2.855125,-5.46384 -5.186775,-11.20367 -7.239635,-17.06631 -1.47664,-3.86205 -2.97187,-8.1904 -5.50158,-11.43063 -0.34544,-0.44247 -0.75659,-0.82069 -1.13488,-1.23103 -0.66141,-0.46287 -1.22526,-1.047 -2.07954,-1.01682 -0.27457,0.01 -1.00326,0.46949 -0.77148,0.31121 3.68235,-2.51465 7.42473,-4.92655 11.1371,-7.38982 -0.19845,0.21401 -0.46465,0.37465 -0.59533,0.64201 -0.15368,0.31438 -0.15031,0.69144 -0.22546,1.03717 0.0563,0.43121 0.0699,0.87136 0.16885,1.29364 0.72208,3.08219 3.06944,5.09007 5.72093,6.19361 0.760885,0.21416 1.507965,0.4959 2.282635,0.64247 5.39622,1.02094 10.81071,-0.61276 15.71693,-2.93164 -2.43003,1.59581 -4.84717,3.21446 -7.2901,4.78744 -1.22023,0.7857 2.44772,-1.56241 3.62172,-2.42541 4.86026,-3.57272 9.14037,-8.0071 12.43606,-13.25877 0.72345,-1.34074 1.52732,-2.63508 2.17036,-4.02222 2.42795,-5.23745 3.78716,-11.25969 3.43175,-17.12561 -0.0837,-1.38152 -0.36081,-2.74167 -0.54121,-4.1125 -0.93,-3.3966 -0.97347,-4.36449 -2.68641,-7.4201 -1.84171,-3.28531 -4.49514,-6.0484 -7.6844,-7.80211 -1.06983,-0.58828 -2.23672,-0.94606 -3.35508,-1.41909 -1.25255,-0.24763 -2.48961,-0.61507 -3.75765,-0.74289 -4.50255,-0.45387 -9.0373,0.49675 -13.25022,2.17221 -1.676515,0.66673 -5.170765,4.21839 -4.908695,2.32032 0.28903,-2.09341 3.36391,-2.20928 5.045875,-3.31392 -1.799015,1.26432 -3.644725,2.45524 -5.397045,3.79297 -10.10212,7.71202 -18.82787,17.30263 -26.84517,27.39145 -1.63463,2.14134 -3.30117,4.25509 -4.90391,6.42402 -7.33321,9.92371 -13.9266,20.46219 -19.89534,31.38405 -0.99242,1.84074 -2.01304,3.66431 -2.97728,5.52221 -3.55174,6.84357 -6.67412,13.94392 -9.50478,21.16104 -1.21426,3.41923 -2.47617,6.90027 -2.9645,10.54085 0,0 -12.82154,6.72727 -12.82154,6.72727 z"
       inkscape:connector-curvature="0" />
    <path
       style="fill:#020000;fill-opacity:0.69863018;stroke:none"
       id="path2987-0"
       d="m 277.16919,70.05235 c -0.26271,0.0726 -0.53559,0.11148 -0.78816,0.21775 -0.7108,0.29908 -3.18515,1.92006 -1.99257,1.18812 19.2444,-11.81126 12.40422,-8.22062 8.57605,-4.92962 -1.06307,1.10452 -3.0307,2.98353 -3.17613,4.68354 -0.0111,0.13029 0.0648,0.25227 0.0972,0.3784 1.15848,-0.0379 2.4415,-0.5915 3.45271,-1.18862 0.42743,-0.25238 1.65556,-1.107 1.22927,-0.85242 -3.54486,2.11695 -7.05827,4.29401 -10.5874,6.44102 1.14808,-0.84334 2.02224,-1.97439 2.88639,-3.12206 0,0 12.75385,-5.87464 12.75385,-5.87464 l 0,0 c -0.85925,1.24415 -1.67535,2.53809 -2.79325,3.54105 -4.33763,2.77476 -8.6521,5.59164 -13.01288,8.32428 -1.17108,0.73385 -2.78279,1.39984 -4.17148,1.27819 -1.31891,-0.11553 -1.28128,-0.35747 -2.14544,-1.24222 -0.11125,-0.35258 -0.29546,-0.68777 -0.33375,-1.05774 -0.21946,-2.12007 1.7546,-4.29067 2.95075,-5.71655 4.62358,-4.58272 8.10294,-5.74503 15.11152,-10.01715 1.01029,-0.61583 2.12135,-0.98306 3.24366,-1.27435 0,0 -11.30037,9.22302 -11.30037,9.22302 z"
       inkscape:connector-curvature="0" />
    <path
       style="fill:#020000;fill-opacity:0.69863018;stroke:none"
       id="path2995-7"
       d="m 493.96253,72.2368 c -1.19547,1.56576 -2.21048,3.2562 -2.85476,5.16901 -0.39458,1.65631 -0.55798,3.04545 0.62765,4.34137 0.96046,0.58414 2.09042,0.53742 3.11228,0.14565 0.32416,-0.12427 1.26601,-0.57974 0.94124,-0.45738 -3.76001,1.41666 -7.50019,2.89436 -11.25029,4.34154 0.32131,-0.21255 0.64262,-0.4251 0.96393,-0.63766 0,0 12.79912,-3.11869 12.79912,-3.11869 l 0,0 c -0.29572,0.28638 -0.59144,0.57276 -0.88715,0.85915 -4.3872,1.80363 -8.75439,3.66552 -13.16161,5.4109 -1.67747,0.66432 -3.57037,0.1127 -4.83769,-1.16539 -0.17657,-0.26421 -0.37887,-0.51032 -0.52971,-0.79263 -0.79664,-1.49091 -0.78207,-3.30951 -0.45512,-4.94056 0.54364,-1.97859 1.42172,-3.81412 2.54717,-5.48213 0,0 12.98494,-3.67318 12.98494,-3.67318 z"
       inkscape:connector-curvature="0" />
    <path
       style="fill:#020000;fill-opacity:0.69863018;stroke:none"
       id="path2993-2"
       d="m 457.81662,67.99719 c -1.22098,-2.2919 -2.73619,-4.36293 -4.32486,-6.36384 -2.38712,-2.61416 -5.11767,-4.90798 -8.13759,-6.60675 -0.73968,-0.41608 -1.51162,-0.76109 -2.26743,-1.14164 -4.62487,-2.05084 -9.5898,-2.98321 -14.58405,-2.72355 -1.14799,0.0597 -2.28873,0.23091 -3.4331,0.34636 -1.19412,0.21628 -2.39729,0.3804 -3.58234,0.64885 -1.22171,0.27675 -2.43773,0.59333 -3.63225,0.98546 -1.23449,0.40525 -4.87541,1.82818 -3.64637,1.40393 2.48316,-0.85719 4.83677,-2.25396 7.40973,-2.70303 1.37023,-0.23916 -2.49383,1.32407 -3.70597,2.05659 -1.23425,0.74587 -2.4191,1.5839 -3.62865,2.37586 -6.07848,4.39671 -11.34803,9.97937 -15.57305,16.44001 -0.83469,1.27635 -1.58497,2.6151 -2.37746,3.92266 -3.70614,6.60032 -6.39313,13.81663 -8.08825,21.31647 -0.32865,1.45405 -0.57894,2.92758 -0.86842,4.39136 -0.95957,5.64405 -1.3707,11.40257 -1.09639,17.13816 0.16279,3.40385 0.38537,4.63293 0.812,7.9884 0.93843,6.00265 2.57961,11.91187 5.50255,17.15088 0.53364,0.95647 1.14821,1.85708 1.72232,2.78561 2.98214,4.29359 6.72564,8.00732 11.03017,10.70566 0.84825,0.53173 1.74203,0.97321 2.61305,1.45982 4.54454,2.2335 9.47208,3.30807 14.4488,3.47458 1.00606,0.0337 2.01299,-0.0205 3.01949,-0.0307 3.99884,-0.1267 7.95578,-0.94141 11.77382,-2.21652 0.96078,-0.32086 3.80039,-1.42428 2.85658,-1.04892 -2.8672,1.14027 -5.75155,2.22929 -8.62731,3.34393 5.917,-2.49162 11.19567,-6.29378 16.20666,-10.45271 5.16002,-4.45207 9.55156,-9.79597 13.75134,-15.27436 3.61413,-4.85113 6.79308,-10.0608 9.87881,-15.31607 0.99979,-1.70858 1.91442,-3.47226 2.88857,-5.19764 0.16722,-0.29614 0.34403,-0.58588 0.50979,-0.88299 0.0943,-0.16911 0.0949,-0.46145 0.27033,-0.51537 4.31445,-1.3262 8.69521,-2.38462 13.04281,-3.57693 0.0206,0.44614 0.0758,0.89197 0.0617,1.3384 -0.0264,0.83882 -0.28567,2.45487 -0.41888,3.23843 -0.36049,2.12031 -0.80186,4.22618 -1.21888,6.3339 -0.82132,4.57112 -1.56779,9.15793 -2.16207,13.77032 -0.50934,3.80034 -0.65164,7.62631 -0.42283,11.45474 0.18023,1.93723 0.33135,3.91491 0.87939,5.78266 0.23184,0.79013 0.5302,1.39826 0.85927,2.14093 0.79141,1.47964 1.72397,3.03747 3.16428,3.86343 0.26253,0.15056 0.54919,0.24547 0.82379,0.36818 1.25197,0.46803 2.57626,0.40512 3.85257,0.0701 0.38248,-0.10039 1.4983,-0.52196 1.12806,-0.37742 -3.63048,1.41733 -7.27324,2.79748 -10.90986,4.19622 3.29579,-1.47578 5.70804,-4.31054 7.89075,-7.26196 2.9042,-4.34601 5.34523,-9.03013 7.74369,-13.71657 2.5359,-5.43365 5.43581,-10.63616 8.46358,-15.7599 2.75461,-4.47363 5.73545,-8.7839 9.03563,-12.80152 1.59385,-1.78162 3.25045,-3.57979 5.21991,-4.8814 4.33646,-2.86596 9.53299,-3.80562 14.32978,-5.6159 2.68279,0.0359 4.05039,1.94163 5.31957,4.25162 1.4843,3.41123 1.67809,7.18865 1.80196,10.89458 0.10697,4.9154 -0.67756,9.75385 -1.67462,14.5262 -0.93994,4.54061 -2.31621,8.94889 -3.76903,13.32077 -0.44695,1.45693 -1.06339,2.86644 -1.36888,4.37305 -0.035,0.1728 0.0239,0.68899 -0.0449,0.52853 -0.11344,-0.26458 0.16028,-0.93958 -0.10082,-0.8684 -4.14235,1.12933 -8.13806,2.81593 -12.20707,4.22389 0.23784,-0.35405 0.49325,-0.69499 0.71351,-1.06215 0.50174,-0.83635 1.37694,-2.56587 1.79009,-3.38162 1.19596,-2.36141 2.36354,-4.74002 3.53987,-7.11294 2.80947,-5.73439 5.69792,-11.42259 8.63457,-17.08156 2.99388,-5.6448 6.16689,-11.17321 9.56636,-16.54119 2.06496,-3.25664 4.15671,-6.50588 6.90438,-9.13039 4.39883,-3.31438 2.54749,-2.03449 13.85238,-5.30639 0.32548,-0.0942 0.54849,0.43842 0.75824,0.7241 0.81126,1.10487 0.97358,2.55805 1.19297,3.89152 0.45664,4.05485 0.21107,8.15407 -0.004,12.21807 -0.23619,4.56313 -0.73782,9.1019 -1.10098,13.6535 -0.29729,3.90263 -0.35603,7.81905 -0.37322,11.73279 -1.8e-4,0.55958 -0.003,1.11917 -5.3e-4,1.67875 0.006,1.24544 -0.0935,2.67824 0.25947,3.89023 0.0448,0.15394 0.16257,0.54952 0.23764,0.4101 0.13387,-0.24859 0.005,-0.57561 0.007,-0.86342 -4.02147,1.51353 -7.95977,3.31695 -12.0644,4.54058 -0.36121,0.10768 0.34966,-0.71907 0.4971,-1.09226 0.19872,-0.50299 0.36924,-1.01867 0.54024,-1.53349 0.67424,-2.02989 1.26841,-4.09413 1.90309,-6.13876 1.57698,-5.32165 3.80576,-10.36952 6.23899,-15.28417 2.50397,-5.0222 5.68687,-9.57442 9.0524,-13.94465 2.24548,-2.78149 4.52406,-5.53206 7.18861,-7.8501 4.5835,-3.36889 2.22626,-1.74671 13.93567,-5.85379 0.50538,-0.17727 1.42315,0.75616 1.64029,1.06118 0.5637,0.79181 0.65738,1.46521 0.91743,2.40569 0.67519,3.694 0.22342,7.46361 -0.15724,11.16339 -0.56264,4.71166 -1.00048,9.44109 -1.34722,14.17696 -0.41102,4.9116 -0.28574,9.83421 0.006,14.74641 0.2839,3.4702 0.57844,7.00062 1.68214,10.30121 0.18546,0.55461 0.41963,1.08864 0.62945,1.63296 0.96435,2.05272 2.20376,4.19889 4.15581,5.29917 0.32424,0.18277 0.67585,0.30174 1.01377,0.45262 2.82417,1.01753 5.65642,0.27661 8.41354,-0.61286 6.50387,-2.46581 -5.39156,2.19174 -8.12221,3.17878 -0.72856,0.26335 1.41054,-0.66039 2.10099,-1.02484 2.48537,-1.31186 4.82235,-2.88197 7.16138,-4.47031 5.91913,-4.16182 11.25423,-9.18593 16.4747,-14.30364 5.56613,-5.4501 10.5031,-11.55997 15.01081,-18.04193 2.86694,-4.4039 5.57663,-8.99388 7.1924,-14.12709 0.24978,-0.79352 0.43016,-1.61074 0.64523,-2.41611 0.61045,-2.96634 1.06893,-6.39626 -0.44178,-9.16622 -0.21716,-0.39819 -0.51536,-0.73748 -0.77305,-1.10623 -2.55339,-2.30584 -5.17582,-2.00376 -8.22492,-1.27596 -6.67155,2.58272 7.36636,-2.85414 8.42468,-3.21785 0.66499,-0.22853 -1.25864,0.65604 -1.86179,1.0359 -1.94538,1.22519 -3.63823,2.75688 -5.3156,4.3646 -3.51003,3.53359 -5.64303,7.60329 -7.46727,12.33455 -1.59947,4.55063 -1.94884,9.40472 -2.16821,14.22055 -0.16481,4.24355 0.48816,8.43122 1.2277,12.57878 0.5541,2.14922 1.15783,4.8508 3.02566,6.16148 0.27923,0.19592 0.60756,0.29378 0.91135,0.44069 1.1119,0.27277 2.22348,0.23343 3.3179,-0.1243 0.44031,-0.14391 1.72077,-0.7042 1.2864,-0.54046 -10.88493,4.10331 -13.95814,6.03258 -9.12596,3.17518 3.51267,-2.34018 6.41846,-5.49472 9.16527,-8.78594 2.93319,-3.69502 5.35156,-7.78922 7.55477,-12.0235 1.86615,-3.75346 3.4538,-7.65072 4.67881,-11.70109 0.74997,-2.7104 1.44303,-5.50592 1.47138,-8.35321 -0.0364,-0.13173 -0.0951,-0.53184 -0.10919,-0.39518 -0.46704,4.54551 8.15483,-2.36612 12.20955,-3.63643 0.29754,-0.0932 -0.34272,0.56248 -0.47079,0.86806 -0.41421,0.98823 -0.59745,1.92436 -0.85732,2.97395 -0.86919,4.36029 -1.18945,8.80801 -1.40502,13.25255 -0.26345,5.14132 -0.16583,10.28795 0.25248,15.41453 0.33781,3.25183 0.99618,6.46956 2.03439,9.5463 0.61785,1.83101 0.97791,2.49975 1.77376,4.24153 1.74398,3.32868 3.95174,6.40108 6.5998,8.94734 0.53977,0.519 1.11886,0.9879 1.67828,1.48186 3.05049,2.34066 6.32989,4.40781 9.86009,5.78063 0.69995,0.27219 1.41937,0.48151 2.12905,0.72226 3.72768,1.04305 7.62092,1.46103 11.45312,0.91142 0.83431,-0.11966 1.65608,-0.32602 2.48412,-0.48902 0.85268,-0.24867 1.71337,-0.4671 2.55805,-0.74601 0.88393,-0.29188 3.4943,-1.30536 2.62509,-0.9655 -2.91566,1.14004 -5.803,2.37555 -8.76481,3.36615 -0.97692,0.32674 1.8774,-0.88021 2.79471,-1.3694 2.4779,-1.32143 3.24225,-1.90495 5.61699,-3.46968 3.77578,-2.8175 1.91566,-1.35431 5.57915,-4.39139 0,0 11.8862,-2.92428 11.8862,-2.92428 l 0,0 c -3.61109,3.10337 -1.78483,1.60184 -5.47697,4.50712 -2.256,1.56899 -3.14136,2.26005 -5.49984,3.6068 -5.32215,3.03908 -11.77367,5.11657 -17.05202,7.17708 -0.88884,0.34699 -1.79557,0.64066 -2.7073,0.90902 -0.87575,0.25778 -1.76778,0.4456 -2.65167,0.6684 -0.85947,0.13177 -1.71428,0.3061 -2.5784,0.39531 -3.95302,0.40806 -7.94064,-0.13074 -11.73721,-1.34572 -0.72247,-0.27326 -1.45454,-0.51833 -2.16739,-0.81979 -3.58842,-1.51749 -6.93631,-3.67545 -10.03227,-6.14126 -0.5773,-0.52667 -1.17421,-1.02906 -1.73188,-1.58002 -2.71629,-2.68364 -4.9882,-5.90025 -6.75456,-9.38462 -0.32641,-0.72562 -0.67781,-1.43866 -0.97924,-2.17688 -1.56613,-3.83548 -2.44935,-7.96692 -2.92245,-12.11624 -0.39219,-5.17965 -0.54553,-10.37851 -0.33761,-15.57387 0.16672,-4.47972 0.42722,-8.95668 1.07748,-13.38964 0.37153,-2.3199 0.13384,-1.03303 0.57512,-3.10367 0.0813,-0.38164 -0.0863,-0.97724 0.2399,-1.14596 4.22362,-2.18445 11.73909,-9.43255 13.36073,-4.67546 0.0755,0.22142 0.0243,0.47135 0.0364,0.70702 -0.21306,3.00952 -0.86122,5.95816 -1.70484,8.83046 -1.259,4.15468 -2.87754,8.15187 -4.78083,12.0092 -2.20641,4.31274 -4.59882,8.48873 -7.49265,12.31034 -2.67868,3.35718 -5.4841,6.59929 -8.8683,9.14371 -5.33561,3.84304 -1.57296,1.29882 -14.89893,6.52098 -1.71477,0.67198 -3.56212,0.50099 -5.19163,-0.31651 -0.34075,-0.26064 -0.71027,-0.48195 -1.02224,-0.78192 -1.85018,-1.7791 -2.54989,-4.54865 -3.0921,-7.05022 -0.67785,-4.27396 -1.28453,-8.58792 -1.14916,-12.93926 0.20488,-4.96026 0.58081,-9.95376 2.09632,-14.67979 1.76994,-4.92072 3.82529,-9.1313 7.31222,-12.91329 0.55177,-0.58131 1.07804,-1.19247 1.6553,-1.74393 5.81611,-5.5561 13.32852,-8.15643 20.80652,-10.14667 0.58434,-0.0821 1.16483,-0.20796 1.75298,-0.24621 2.13548,-0.13885 4.37154,0.33162 6.10261,1.76586 0.40339,0.33422 0.73255,0.76223 1.09882,1.14334 0.27864,0.46478 0.60229,0.90128 0.8359,1.39431 1.50376,3.17365 1.10732,6.85938 0.37587,10.19119 -0.23336,0.85445 -0.42855,1.72226 -0.70007,2.56336 -1.70832,5.2916 -4.50491,10.04401 -7.48673,14.58388 -4.52889,6.54749 -9.46427,12.75194 -15.03171,18.29856 -5.12036,5.11984 -10.33967,10.16101 -16.09642,14.43869 -2.24447,1.61336 -4.49477,3.19391 -6.86853,4.57926 -0.66177,0.38621 -1.30991,0.81184 -2.01117,1.10504 -4.57716,1.91384 -9.19776,3.70377 -13.81171,5.5109 -0.61581,0.2412 -1.25032,0.42217 -1.87549,0.63326 -3.02729,0.78752 -6.10882,1.28687 -9.0453,-0.17676 -0.36648,-0.22453 -0.75098,-0.4176 -1.09944,-0.67363 -1.99318,-1.46444 -3.24898,-3.80747 -4.24159,-6.1168 -0.57843,-1.62289 -0.74961,-1.96191 -1.15088,-3.67684 -0.66949,-2.86127 -0.87761,-5.82307 -1.10026,-8.75448 -0.24624,-4.97298 -0.41809,-9.95614 -0.0385,-14.9288 0.31293,-4.73417 0.75432,-9.45735 1.23316,-14.17496 0.29109,-3.47269 0.74795,-7.0374 -0.006,-10.47774 -0.16277,-0.46438 -0.28785,-1.1361 -0.72432,-1.4499 -0.44423,-0.31937 -1.21231,0.10379 -1.07411,0.0464 12.49419,-5.18183 14.99191,-6.54064 10.44755,-4.14138 -2.93509,2.10701 -5.34953,4.86823 -7.73354,7.65453 -3.44212,4.26917 -6.69386,8.73744 -9.2505,13.70332 -2.40559,4.7941 -4.57966,9.7479 -6.06841,14.9741 -0.7212,2.51454 -1.42093,5.04184 -2.04308,7.58766 -0.10172,0.41622 0.0819,1.06268 -0.27253,1.25749 -4.12018,2.26507 -8.49748,3.93305 -12.74622,5.89957 -0.18693,-0.27992 -0.41824,-0.53068 -0.56076,-0.83975 -0.20749,-0.44998 -0.26623,-1.52271 -0.28687,-1.93487 -0.0785,-1.56786 0.0204,-3.13583 0.0177,-4.70405 0.0779,-3.96714 0.19533,-7.93504 0.50979,-11.88984 0.37865,-4.53841 0.90369,-9.06435 1.125,-13.6167 0.20592,-3.91544 0.37467,-7.88245 -0.18553,-11.77241 -0.15429,-0.7302 -0.25932,-1.54351 -0.61823,-2.20965 -0.0962,-0.17862 -0.22427,-0.35531 -0.39369,-0.45061 -0.13161,-0.0741 -0.58272,0.0372 -0.44443,-0.0209 10.10805,-4.24114 15.83462,-5.96817 10.77112,-4.41594 -0.81249,0.6157 -1.39223,1.01721 -2.14168,1.7622 -2.10643,2.09388 -3.7276,4.68695 -5.45114,7.13324 -3.53778,5.28387 -6.76007,10.79495 -9.76392,16.45371 -2.89882,5.61609 -5.7484,11.26193 -8.45571,16.98928 -1.79754,3.81546 -3.59795,7.63056 -5.23087,11.5332 -4.3349,1.80535 -8.56308,3.9465 -13.00468,5.41606 -0.31388,0.10386 -0.31681,-0.6446 -0.34596,-0.99881 -0.0216,-0.26217 0.12105,-0.51049 0.20131,-0.75892 0.49206,-1.52303 1.09858,-3.00551 1.64186,-4.50685 1.54982,-4.32289 3.05251,-8.67419 4.01042,-13.20543 0.98624,-4.63448 1.76271,-9.33766 1.61049,-14.11703 -0.16198,-3.4419 -0.33464,-6.98016 -1.83836,-10.09797 -1.25908,-1.97313 -2.35565,-3.16739 -4.70755,-2.65465 3.71911,-1.50341 7.44469,-2.9882 11.15735,-4.51023 0.38682,-0.15858 -0.80047,0.23844 -1.1788,0.41946 -0.43877,0.20994 -0.85513,0.47378 -1.26227,0.74852 -1.58719,1.07104 -3.00889,2.41027 -4.33238,3.83305 -3.45522,3.90064 -6.4968,8.19538 -9.33128,12.64185 -3.06116,5.05748 -5.97873,10.21163 -8.4361,15.65021 -2.35937,4.69816 -4.73867,9.40221 -7.48435,13.85133 -2.06187,3.10331 -4.29258,6.04667 -7.43571,7.92381 -0.83258,0.32788 -11.8753,6.42513 -16.90308,5.46186 -0.8585,-0.16448 -1.18205,-0.36586 -1.98157,-0.7255 -0.30787,-0.19682 -0.6308,-0.3683 -0.92361,-0.59048 -1.4939,-1.13348 -2.49547,-2.84221 -3.35112,-4.54548 -0.39116,-0.95113 -0.61326,-1.40717 -0.88537,-2.4229 -0.527,-1.96725 -0.69721,-4.03365 -0.82732,-6.06692 -0.21206,-3.94329 -0.0375,-7.88118 0.5179,-11.78876 0.64743,-4.63075 1.38655,-9.24368 2.16284,-13.85101 0.56738,-3.21038 1.29027,-6.46881 1.24919,-9.75167 4.193,-1.50321 8.41162,-2.92496 12.579,-4.50962 0.19017,-0.0723 -0.4254,-0.14694 -0.60323,-0.0442 -0.31462,0.1818 -0.52289,0.52857 -0.75019,0.82626 -1.25072,1.63803 -2.11527,3.56612 -3.2606,5.28397 -3.23502,5.28932 -6.49739,10.57654 -10.14089,15.54886 -4.20772,5.53166 -8.5677,10.96136 -13.67635,15.55283 -4.95992,4.25662 -10.1868,8.17516 -16.05801,10.82793 -6.07314,2.40836 -13.40834,5.87945 -20.16109,7.46579 -2.9529,0.69369 -5.96327,1.08606 -8.9862,1.10337 -1.02027,-0.0201 -2.04185,-8.5e-4 -3.06081,-0.0604 -5.09092,-0.2971 -10.08149,-1.55634 -14.68477,-3.95776 -0.88841,-0.52472 -1.80022,-1.00536 -2.66522,-1.57416 -4.37616,-2.87762 -8.1606,-6.75572 -11.159,-11.23616 -1.55284,-2.60183 -2.0303,-3.21364 -3.26027,-6.03959 -2.00004,-4.59522 -3.1652,-9.54502 -3.94275,-14.5369 -0.42121,-3.4776 -0.62609,-4.62642 -0.78532,-8.15363 -0.26398,-5.84776 0.17904,-11.70166 1.12696,-17.46067 0.28846,-1.48994 0.53548,-2.98999 0.8654,-4.4698 1.69762,-7.61484 4.36054,-14.9684 8.04469,-21.71397 2.03369,-3.43361 2.65774,-4.67877 5.01229,-7.88274 3.65683,-4.97606 7.96658,-9.36029 12.76679,-13.01835 1.72938,-1.18514 5.29589,-3.74516 7.21913,-4.60677 4.892,-2.1916 9.87579,-4.13563 14.8407,-6.12544 3.59946,-1.44257 7.33241,-2.38255 11.14693,-2.83688 1.17822,-0.0893 2.35395,-0.23484 3.53465,-0.26781 5.18444,-0.14473 10.32015,0.92875 15.10044,3.09417 0.79098,0.40665 1.59764,0.77926 2.37293,1.21994 3.15834,1.79521 6.06045,4.16008 8.57752,6.88881 1.6769,2.01451 3.1887,4.17036 4.82641,6.21776 0,0 -12.4715,5.42327 -12.4715,5.42327 z"
       inkscape:connector-curvature="0" />
    <g
       id="g4166">
      <path
         inkscape:connector-curvature="0"
         d="m 11.495127,169.07566 c 0.89693,-3.89412 2.31442,-7.61353 3.76061,-11.30134 3.91785,-9.47081 8.6008,-18.53557 13.54626,-27.42369 6.22088,-11.02188 12.98328,-21.70122 20.43912,-31.807111 1.6113,-2.18401 3.28276,-4.31612 4.92414,-6.47417 7.93737,-10.03245 16.4899,-19.65575 26.39416,-27.489963 1.6899,-1.336691 3.46835,-2.539363 5.20253,-3.809044 9.29023,-5.780547 18.901973,-13.2749 30.100633,-13.952471 3.80972,-0.230506 4.70349,0.211406 8.33862,0.995185 1.18835,0.530251 2.43224,0.935285 3.56506,1.590753 3.34709,1.936677 6.1549,4.954 8.08113,8.455131 1.75176,3.184013 1.86031,4.340782 2.8469,7.854681 1.14556,5.945726 0.71601,11.981793 -1.04806,17.742068 -1.22776,4.00908 -1.88357,4.91214 -3.74754,8.60016 -3.20564,5.40438 -7.41027,10.010601 -12.23628,13.765041 -5.04153,3.92208 -14.58,9.15407 -18.06919,11.25253 -5.213443,2.31414 -10.942513,3.80278 -16.588503,2.61466 -0.84783,-0.17841 -1.66423,-0.49897 -2.49634,-0.74846 -0.69775,-0.35005 -1.43065,-0.62871 -2.09323,-1.05015 -2.10697,-1.34017 -3.83805,-3.57267 -4.63459,-6.06311 -0.15679,-0.4902 -0.2284,-1.00714 -0.3426,-1.51071 -0.009,-0.45672 -0.0748,-0.91615 -0.0275,-1.37013 0.55347,-5.30545 11.7105,-8.74296 12.90817,-9.429651 0.7484,-0.4291 3.15485,1.854131 3.60223,2.277771 3.15356,3.90579 4.7951,8.87901 6.543433,13.61851 1.75368,4.82599 3.4464,9.70751 5.71581,14.29197 0.44147,0.89185 0.93915,1.75032 1.40873,2.62548 1.94907,3.31197 4.20207,6.46864 7.00134,9.01177 1.77286,1.61064 2.47323,1.97258 4.44497,3.29356 3.2367,1.93579 6.7234,3.30668 10.42888,3.69416 2.49303,0.26069 3.43591,0.0922 5.9406,-0.0692 4.46141,-0.54345 8.73996,-2.06996 12.76248,-4.17971 1.10846,-0.58138 4.33941,-2.52086 3.2715,-1.85778 -2.58232,1.60339 -5.21075,3.11973 -7.81612,4.67959 5.31144,-3.82745 10.25161,-8.27066 14.53583,-13.38049 0.77932,-0.92951 1.50424,-1.90994 2.25636,-2.8649 2.60965,-3.64966 5.2015,-7.5027 6.46381,-11.96029 0.14982,-0.52906 0.24167,-1.07506 0.3625,-1.61259 0.0314,-0.5874 0.20252,-1.45258 -0.14562,-2.0268 -0.62729,-1.03468 -2.72281,0.19514 -3.3346,0.53297 -5.05721,3.559 2.04984,-1.48732 8.98881,-5.29377 0.58215,-0.31935 -1.01288,0.88983 -1.4843,1.37599 -1.69609,1.7491 -2.97288,3.73989 -4.25342,5.84016 -1.65845,3.12691 -3.11563,6.39831 -4.08621,9.85065 -0.61136,2.17461 -0.68023,2.85797 -1.07299,5.05504 -0.52216,3.34693 -0.75756,6.82564 0.31524,10.08495 0.16151,0.49066 0.39131,0.95228 0.58696,1.42843 1.94266,3.05223 3.89012,2.99563 6.9944,2.2666 0.5305,-0.22092 1.07258,-0.41214 1.59149,-0.66276 0.56771,-0.27418 1.10949,-0.60642 1.66424,-0.90963 -3.31399,2.01319 -6.58219,4.11578 -9.94196,6.03957 -0.63637,0.36438 1.19213,-0.87391 1.75823,-1.35361 1.5525,-1.31556 1.92291,-1.81881 3.30629,-3.33506 2.96435,-3.42148 4.83955,-7.40724 6.11527,-11.83014 0.38131,-1.65461 0.58766,-3.34557 0.56138,-5.05091 -0.0174,-1.13062 -0.1215,-2.19349 -0.0301,-3.32436 1.86168,-5.7763 0.33578,-1.66404 13.24926,-8.33358 0.33966,-0.17542 0.74167,0.14587 1.11444,0.20583 1.58387,0.25477 3.1789,0.39487 4.77385,0.53854 5.19628,0.40344 10.29659,-0.7222 15.32111,-1.99699 6.02654,-1.67462 11.68241,-4.49719 17.14701,-7.64375 3.98802,-2.6277 14.12162,-8.32692 -4.61153,2.79035 -0.61806,0.36679 1.18835,-0.8196 1.77717,-1.23817 0.48819,-0.34704 2.3803,-1.73503 2.91998,-2.13025 4.95954,-3.43297 5.29298,-3.69395 14.13141,-8.851441 0.98838,-0.57675 2.25415,0.17528 2.92567,0.918731 0.26005,0.28791 0.44684,0.64277 0.67026,0.96416 1.52468,3.42398 1.58028,7.29118 1.5442,11.01085 -0.16391,3.56485 -0.52085,7.1235 -1.36889,10.58203 -0.5951,2.42696 -0.78953,2.80743 -1.60491,5.15079 -1.59394,3.96781 -3.82507,7.61019 -6.8657,10.47425 -0.52966,0.4989 -1.10787,0.93508 -1.6618,1.40262 -6.25203,3.97117 -12.66957,10.52771 -20.3908,9.8062 -0.55438,-0.0518 -1.09862,-0.19109 -1.64792,-0.28664 -3.14462,-0.81088 -5.36301,-3.1263 -7.27926,-5.78123 -0.60704,-0.97321 -1.24299,-1.92888 -1.80202,-2.93579 -0.10395,-0.18723 -0.47715,-0.46734 -0.29812,-0.57024 13.01795,-7.48187 11.1029,-11.37507 13.35388,-5.5779 1.3836,3.62406 2.98995,7.14022 4.90715,10.4721 1.67407,2.84696 3.64381,5.63221 6.51673,7.17184 0.50975,0.27318 1.0549,0.4625 1.58236,0.69375 4.19111,1.2357 8.33273,-0.26171 12.23856,-1.87324 0.81133,-0.40528 1.64017,-0.77244 2.43401,-1.21585 0.8479,-0.47361 3.32344,-2.02859 2.48669,-1.53266 -2.91742,1.7291 -5.73434,3.66258 -8.72896,5.23233 -0.96387,0.50526 1.75843,-1.32051 2.60779,-2.02366 2.30295,-1.90652 3.01876,-2.69799 5.18244,-4.81799 5.23468,-5.09336 9.5711,-11.0518 13.56515,-17.27187 2.92188,-4.65064 5.39839,-9.58657 7.08446,-14.89848 0.23834,-1.04334 0.5032,-1.79016 0.4593,-2.84521 -0.007,-0.1864 0.0227,-0.49269 -0.14609,-0.53734 -0.14602,-0.0386 -0.24678,0.53935 -0.11131,0.46926 11.27629,-5.8329 15.30148,-9.83554 11.06377,-5.76452 -2.20925,3.31184 -2.67458,7.40449 -3.06255,11.34659 -0.21064,3.59436 -0.49648,7.27205 0.14649,10.83976 0.11037,0.61243 0.28468,1.20959 0.42703,1.81439 0.80631,2.46984 1.96284,4.93801 3.97139,6.53431 0.35521,0.28231 0.75375,0.49572 1.13063,0.74358 2.9068,1.46652 5.70519,1.4209 8.81056,0.90487 1.99428,-0.43718 3.94124,-1.09449 5.81217,-1.95515 4.17355,-1.91992 12.9696,-7.65526 -5.17579,3.46969 4.66377,-2.99944 8.65148,-6.92828 12.24225,-11.27198 2.40746,-3.14019 4.55068,-6.61307 5.80983,-10.4776 0.19803,-0.60779 0.33211,-1.23744 0.49817,-1.85615 0.46189,-2.74041 0.62274,-5.05234 -1.00653,-7.36393 -1.71056,-1.36233 -3.07207,-1.10502 -4.81749,-0.0144 22.80802,-12.697511 12.1954,-8.666151 9.13785,-5.06052 -1.13208,1.335 -1.8773,2.89058 -2.633,4.48397 -1.8134,4.40558 -2.82717,9.12926 -3.68836,13.83752 -0.60597,4.24916 -0.85642,8.59387 -0.29732,12.86751 0.10794,0.82512 0.27743,1.63959 0.41614,2.4594 0.6418,3.11861 1.72394,6.13642 3.38802,8.79774 1.04577,1.67246 1.59592,2.23102 2.84475,3.73638 2.78201,3.01513 6.11427,5.36776 9.7599,7.00306 0.8046,0.36092 1.63268,0.65836 2.44901,0.98754 4.57542,1.68413 9.42092,2.45334 14.25718,2.28801 1.07317,-0.0367 2.14236,-0.15805 3.21355,-0.23707 6.1237,-0.79909 12.02803,-2.98402 17.528,-5.94931 1.28208,-0.69123 2.51885,-1.47526 3.77827,-2.2129 0,0 -9.87101,8.52245 -9.87101,8.52245 l 0,0 c -1.30048,0.73314 -2.5795,1.51191 -3.90144,2.19943 -5.69031,2.95945 -11.77903,5.11777 -18.09112,5.77548 -1.10187,0.0597 -2.20244,0.16265 -3.3056,0.17914 -4.99681,0.0747 -9.9728,-0.78529 -14.68347,-2.57399 -0.84586,-0.35099 -1.70432,-0.66882 -2.53758,-1.05295 -3.80076,-1.75218 -7.26778,-4.23126 -10.13197,-7.44284 -1.3212,-1.60214 -1.88429,-2.17526 -2.99363,-3.9558 -1.75124,-2.81086 -2.8989,-5.98018 -3.58307,-9.27025 -0.39639,-2.24275 -0.5724,-2.89686 -0.73299,-5.18405 -0.2491,-3.54794 -0.0201,-7.1177 0.4167,-10.63661 0.8151,-4.74897 1.7275,-9.50838 3.30077,-14.04565 3.79701,-9.43069 6.20817,-8.30704 16.97417,-14.816771 0.34193,-0.095 0.67631,-0.23018 1.02579,-0.28506 1.85548,-0.29136 3.6039,0.54858 4.86454,1.969201 0.20261,0.33647 0.4354,0.65411 0.60782,1.00944 1.15544,2.38106 1.10066,5.11976 0.65042,7.68739 -0.1711,0.67575 -0.3106,1.36165 -0.51329,2.02726 -1.23211,4.04601 -3.40018,7.71354 -5.84078,11.03237 -3.52705,4.44184 -7.4275,8.50376 -12.02608,11.67132 -5.50349,3.41847 -13.23122,9.14546 -20.12357,11.44666 -1.7586,0.58716 -2.21888,0.62836 -4.00269,0.99716 -3.36514,0.33761 -6.49717,0.21266 -9.48953,-1.677 -0.41224,-0.31644 -0.84715,-0.60136 -1.23672,-0.94933 -2.12348,-1.8967 -3.39838,-4.58538 -4.24546,-7.35547 -0.42636,-1.86484 -0.55238,-2.14426 -0.73823,-4.08922 -0.2882,-3.01595 -0.0852,-6.05393 0.0718,-9.06985 0.31531,-4.05235 0.67521,-8.18799 2.37996,-11.88855 2.59389,-5.82596 0.84815,-2.49691 13.6026,-8.65139 0.31771,-0.15331 0.53857,0.50407 0.6937,0.83878 0.61084,1.31793 -0.21194,3.09298 -0.41082,4.35991 -1.84836,5.49361 -4.39714,10.64304 -7.44087,15.48686 -4.01083,6.27574 -8.29089,12.36296 -13.4991,17.5715 -2.04008,2.09521 -2.85176,3.01265 -5.02346,4.91768 -5.21471,4.57437 -9.60225,6.66443 -16.39427,10.92163 -0.85092,0.53336 -1.72335,1.02866 -2.61082,1.48834 -0.83586,0.43294 -1.70339,0.79161 -2.55509,1.18742 -4.25592,1.58514 -8.68188,2.89244 -13.09288,1.15148 -0.5622,-0.29294 -1.14569,-0.5429 -1.6866,-0.87883 -2.92728,-1.81797 -4.96793,-4.77902 -6.73908,-7.79065 -1.95347,-3.3465 -3.58305,-6.87452 -5.33494,-10.34399 -3.09775,-5.1161 -0.51653,-0.25099 11.80787,-8.45205 0.13475,-0.0897 -0.2743,-0.44893 -0.37347,-0.31616 -0.14018,0.18768 0.4368,1.20012 0.69462,1.64819 0.22217,0.38613 0.46614,0.75731 0.69922,1.13596 1.76778,2.47889 3.63725,4.30075 6.61044,4.84909 1.63788,0.14626 3.14939,0.15342 4.75567,-0.31639 4.13217,-1.2086 9.97733,-6.10477 -8.34964,5.7303 -0.57519,0.37144 1.1796,-0.68805 1.7694,-1.03207 0.58887,-0.42008 1.20611,-0.7976 1.7666,-1.26024 3.15382,-2.6033 5.51381,-6.08427 7.20426,-9.91946 0.31006,-0.81561 0.64891,-1.61929 0.93016,-2.44684 1.39165,-4.09483 2.04716,-8.39822 2.13904,-12.74865 0.0122,-3.33409 -0.0689,-6.8161 -1.52405,-9.84778 -0.5054,-0.56712 -0.81938,-0.89046 -1.5916,-0.62412 -0.27388,0.0944 -1.03257,0.54219 -0.78482,0.38529 4.68351,-2.96615 15.23311,-9.457501 9.4939,-5.92431 -1.64165,1.16903 -3.24781,2.46162 -4.94164,3.53953 -6.03067,3.83777 -12.08131,7.66955 -18.23123,11.292 -5.54379,3.05093 -11.26256,5.78576 -17.34575,7.35026 -5.2336,1.27106 -10.53608,2.33412 -15.93178,1.94597 -1.65432,-0.10574 -3.3505,-0.3313 -5.00961,-0.30673 -0.35805,0.005 -1.37146,0.31026 -1.06994,0.10296 10.76954,-7.40451 15.95761,-7.14073 10.77978,-7.27322 -0.56229,1.23479 -0.3734,1.78651 -0.37565,3.15445 -0.002,1.51181 -0.0138,1.98054 -0.22426,3.5081 -0.0916,0.66461 -0.22063,1.32264 -0.33094,1.98395 -1.24082,4.55859 -3.07906,8.87605 -5.99444,12.50535 -5.80648,6.97579 -8.62003,7.55724 -18.25728,13.35057 -0.57127,0.34341 -1.19306,0.58475 -1.81208,0.81379 -0.57442,0.21252 -1.17349,0.33862 -1.76024,0.50794 -0.57385,0.0639 -1.14465,0.18546 -1.72154,0.1916 -2.75237,0.0292 -4.95194,-1.55733 -6.29365,-4.06842 -0.21773,-0.5469 -0.47562,-1.07733 -0.65321,-1.6407 -1.10336,-3.50027 -0.89248,-7.2309 -0.33002,-10.8142 0.35447,-1.99447 0.5445,-3.27892 1.05382,-5.25035 0.91511,-3.54212 2.3409,-6.89866 3.92844,-10.14526 0.41441,-0.76656 0.80059,-1.55153 1.24325,-2.2997 4.3613,-7.37138 11.1125,-10.9672 18.72441,-14.59124 1.11181,-0.26117 1.63801,-0.54888 2.76156,-0.21223 1.96753,0.58954 2.44849,2.52453 2.18092,4.4648 -0.13757,0.60826 -0.23783,1.22767 -0.41272,1.82479 -1.37935,4.70931 -4.09977,8.80461 -6.85438,12.68517 -0.76427,0.99032 -1.50137,2.00554 -2.29283,2.97097 -4.26155,5.1983 -9.18474,9.72837 -14.44147,13.72551 -7.69156,4.84433 -15.5571,10.86392 -24.36556,13.47206 -2.9821,0.88299 -3.48283,0.83787 -6.50368,1.25414 -2.61545,0.0823 -3.57061,0.22368 -6.16766,-0.13406 -3.83096,-0.52772 -7.42526,-2.06872 -10.74965,-4.13666 -2.0649,-1.42311 -2.75912,-1.78409 -4.60473,-3.52013 -2.84688,-2.67788 -5.161033,-5.96594 -7.155383,-9.39697 -2.85512,-5.46384 -5.18677,-11.20367 -7.23963,-17.06631 -1.47664,-3.86205 -2.97187,-8.1904 -5.50158,-11.43063 -0.34544,-0.44247 -0.75659,-0.82069 -1.13488,-1.23103 -0.66141,-0.46287 -1.22526,-1.047 -2.07954,-1.01682 -0.27457,0.01 -1.00326,0.46949 -0.77148,0.31121 3.68235,-2.51465 7.42473,-4.92655 11.1371,-7.38982 -0.19845,0.21401 -0.46465,0.37465 -0.59533,0.64201 -0.15368,0.31438 -0.15031,0.69144 -0.22546,1.03717 0.0563,0.43121 0.0699,0.87136 0.16885,1.29364 0.72208,3.08219 3.06944,5.09007 5.72093,6.19361 0.76088,0.21416 1.50796,0.4959 2.28263,0.64247 5.396223,1.02094 10.810713,-0.61276 15.716933,-2.93164 -2.43003,1.59581 -4.84717,3.21446 -7.2901,4.78744 -1.22023,0.7857 2.44772,-1.56241 3.62172,-2.42541 4.86026,-3.57272 9.14037,-8.0071 12.43606,-13.258771 0.72345,-1.34074 1.52732,-2.63508 2.17036,-4.02222 2.42795,-5.23745 3.78716,-11.25969 3.43175,-17.12561 -0.0837,-1.381521 -0.36081,-2.741668 -0.54121,-4.112503 -0.93,-3.396601 -0.97347,-4.364488 -2.68641,-7.420099 -1.84171,-3.285309 -4.49514,-6.048394 -7.6844,-7.802112 -1.06983,-0.588277 -2.23672,-0.946059 -3.35508,-1.419088 -1.25255,-0.24763 -2.48961,-0.615068 -3.75765,-0.74289 -4.50255,-0.453869 -9.0373,0.49675 -13.250223,2.172208 -1.67651,0.666738 -5.17076,4.218395 -4.90869,2.320319 0.28903,-2.093407 3.36391,-2.209276 5.04587,-3.313915 -1.79901,1.264324 -3.64472,2.455243 -5.39704,3.792971 -10.10212,7.712016 -18.82787,17.302632 -26.84517,27.391449 -1.63463,2.14134 -3.30117,4.25509 -4.90391,6.42402 -7.33321,9.923711 -13.9266,20.462191 -19.89534,31.384051 -0.99242,1.84074 -2.01304,3.66431 -2.97728,5.52221 -3.55174,6.84357 -6.67412,13.94392 -9.50478,21.16104 -1.21426,3.41923 -2.47617,6.90027 -2.9645,10.54085 0,0 -12.82154,6.72727 -12.82154,6.72727 z"
         id="path2985"
         style="fill:#e20000;fill-opacity:1;stroke:none" />
      <path
         inkscape:connector-curvature="0"
         d="m 273.15557,68.929518 c -0.26271,0.07259 -0.53559,0.111479 -0.78816,0.217751 -0.7108,0.299077 -3.18515,1.920057 -1.99257,1.188115 19.2444,-11.811252 12.40422,-8.22062 8.57605,-4.929617 -1.06307,1.104525 -3.0307,2.983529 -3.17613,4.683539 -0.0111,0.130295 0.0648,0.25227 0.0972,0.378406 1.15848,-0.03795 2.4415,-0.591507 3.45271,-1.188619 0.42743,-0.252389 1.65556,-1.107008 1.22927,-0.852429 -3.54486,2.116957 -7.05827,4.294014 -10.5874,6.44102 1.14808,-0.843331 2.02224,-1.974382 2.88639,-3.122051 0,0 12.75385,-5.874647 12.75385,-5.874647 l 0,0 c -0.85925,1.244148 -1.67535,2.538091 -2.79325,3.541051 -4.33763,2.774759 -8.6521,5.591639 -13.01288,8.324279 -1.17108,0.733849 -2.78279,1.399847 -4.17148,1.278197 -1.31891,-0.115539 -1.28128,-0.357472 -2.14544,-1.242224 -0.11125,-0.352581 -0.29546,-0.687772 -0.33375,-1.057743 -0.21946,-2.120064 1.7546,-4.290664 2.95075,-5.716547 4.62358,-4.58272 8.10294,-5.745026 15.11152,-10.017147 1.01029,-0.615829 2.12135,-0.983059 3.24366,-1.274356 0,0 -11.30037,9.223022 -11.30037,9.223022 z"
         id="path2987"
         style="fill:#e20000;fill-opacity:1;stroke:none" />
      <path
         inkscape:connector-curvature="0"
         d="m 453.803,66.874358 c -1.22098,-2.291899 -2.73619,-4.362928 -4.32486,-6.363843 -2.38712,-2.614153 -5.11767,-4.907976 -8.13759,-6.606743 -0.73968,-0.416088 -1.51162,-0.761096 -2.26743,-1.141639 -4.62487,-2.050845 -9.5898,-2.983219 -14.58405,-2.72355 -1.14799,0.05968 -2.28873,0.230906 -3.4331,0.346356 -1.19412,0.216283 -2.39729,0.380398 -3.58234,0.64885 -1.22171,0.27675 -2.43773,0.593326 -3.63225,0.985458 -1.23449,0.405253 -4.87541,1.828186 -3.64637,1.403927 2.48316,-0.857183 4.83677,-2.253956 7.40973,-2.703027 1.37023,-0.239155 -2.49383,1.324073 -3.70597,2.056592 -1.23425,0.745871 -2.4191,1.583904 -3.62865,2.375855 -6.07848,4.396717 -11.34803,9.979373 -15.57305,16.440015 -0.83469,1.276348 -1.58497,2.615104 -2.37746,3.922655 -3.70614,6.600327 -6.39313,13.816634 -8.08825,21.316475 -0.32865,1.45405 -0.57894,2.92758 -0.86842,4.391361 -0.95957,5.64405 -1.3707,11.40257 -1.09639,17.13816 0.16279,3.40385 0.38537,4.63293 0.812,7.9884 0.93843,6.00265 2.57961,11.91187 5.50255,17.15088 0.53364,0.95647 1.14821,1.85708 1.72232,2.78561 2.98214,4.29359 6.72564,8.00732 11.03017,10.70566 0.84825,0.53173 1.74203,0.97321 2.61305,1.45982 4.54454,2.2335 9.47208,3.30807 14.4488,3.47458 1.00606,0.0337 2.01299,-0.0205 3.01949,-0.0307 3.99884,-0.1267 7.95578,-0.94141 11.77382,-2.21652 0.96078,-0.32086 3.80039,-1.42428 2.85658,-1.04892 -2.8672,1.14027 -5.75155,2.22929 -8.62731,3.34393 5.917,-2.49162 11.19567,-6.29378 16.20666,-10.45271 5.16002,-4.45207 9.55156,-9.79597 13.75134,-15.27436 3.61413,-4.85113 6.79308,-10.0608 9.87881,-15.31607 0.99979,-1.70858 1.91442,-3.47226 2.88857,-5.19764 0.16722,-0.29614 0.34403,-0.58588 0.50979,-0.88299 0.0943,-0.16911 0.0949,-0.46145 0.27033,-0.51537 4.31445,-1.3262 8.69521,-2.38462 13.04281,-3.57693 0.0206,0.44614 0.0758,0.89197 0.0617,1.3384 -0.0264,0.83882 -0.28567,2.45487 -0.41888,3.23843 -0.36049,2.12031 -0.80186,4.22618 -1.21888,6.3339 -0.82132,4.57112 -1.56779,9.15793 -2.16207,13.77032 -0.50934,3.80034 -0.65164,7.62631 -0.42283,11.45474 0.18023,1.93723 0.33135,3.91491 0.87939,5.78266 0.23184,0.79013 0.5302,1.39826 0.85927,2.14093 0.79141,1.47964 1.72397,3.03747 3.16428,3.86343 0.26253,0.15056 0.54919,0.24547 0.82379,0.36818 1.25197,0.46803 2.57626,0.40512 3.85257,0.0701 0.38248,-0.10039 1.4983,-0.52196 1.12806,-0.37742 -3.63048,1.41733 -7.27324,2.79748 -10.90986,4.19622 3.29579,-1.47578 5.70804,-4.31054 7.89075,-7.26196 2.9042,-4.34601 5.34523,-9.03013 7.74369,-13.71657 2.5359,-5.43365 5.43581,-10.63616 8.46358,-15.7599 2.75461,-4.47363 5.73545,-8.7839 9.03563,-12.80152 1.59385,-1.78162 3.25045,-3.57979 5.21991,-4.8814 4.33646,-2.86596 9.53299,-3.80562 14.32978,-5.6159 2.68279,0.0359 4.05039,1.94163 5.31957,4.25162 1.4843,3.41123 1.67809,7.18865 1.80196,10.89458 0.10697,4.9154 -0.67756,9.75385 -1.67462,14.5262 -0.93994,4.54061 -2.31621,8.94889 -3.76903,13.32077 -0.44695,1.45693 -1.06339,2.86644 -1.36888,4.37305 -0.035,0.1728 0.0239,0.68899 -0.0449,0.52853 -0.11344,-0.26458 0.16028,-0.93958 -0.10082,-0.8684 -4.14235,1.12933 -8.13806,2.81593 -12.20707,4.22389 0.23784,-0.35405 0.49325,-0.69499 0.71351,-1.06215 0.50174,-0.83635 1.37694,-2.56587 1.79009,-3.38162 1.19596,-2.36141 2.36354,-4.74002 3.53987,-7.11294 2.80947,-5.73439 5.69792,-11.42259 8.63457,-17.08156 2.99388,-5.6448 6.16689,-11.17321 9.56636,-16.54119 2.06496,-3.25664 4.15671,-6.50588 6.90438,-9.130391 4.39883,-3.31438 2.54749,-2.03449 13.85238,-5.30639 0.32548,-0.0942 0.54849,0.43842 0.75824,0.7241 0.81126,1.10487 0.97358,2.55805 1.19297,3.89152 0.45664,4.054851 0.21107,8.154071 -0.004,12.218071 -0.23619,4.56313 -0.73782,9.1019 -1.10098,13.6535 -0.29729,3.90263 -0.35603,7.81905 -0.37322,11.73279 -1.8e-4,0.55958 -0.003,1.11917 -5.3e-4,1.67875 0.006,1.24544 -0.0935,2.67824 0.25947,3.89023 0.0448,0.15394 0.16257,0.54952 0.23764,0.4101 0.13387,-0.24859 0.005,-0.57561 0.007,-0.86342 -4.02147,1.51353 -7.95977,3.31695 -12.0644,4.54058 -0.36121,0.10768 0.34966,-0.71907 0.4971,-1.09226 0.19872,-0.50299 0.36924,-1.01867 0.54024,-1.53349 0.67424,-2.02989 1.26841,-4.09413 1.90309,-6.13876 1.57698,-5.32165 3.80576,-10.36952 6.23899,-15.28417 2.50397,-5.0222 5.68687,-9.57442 9.0524,-13.94465 2.24548,-2.78149 4.52406,-5.53206 7.18861,-7.8501 4.5835,-3.368891 2.22626,-1.746711 13.93567,-5.853791 0.50538,-0.17727 1.42315,0.75616 1.64029,1.06118 0.5637,0.79181 0.65738,1.46521 0.91743,2.40569 0.67519,3.694001 0.22342,7.463611 -0.15724,11.163391 -0.56264,4.71166 -1.00048,9.44109 -1.34722,14.17696 -0.41102,4.9116 -0.28574,9.83421 0.006,14.74641 0.2839,3.4702 0.57844,7.00062 1.68214,10.30121 0.18546,0.55461 0.41963,1.08864 0.62945,1.63296 0.96435,2.05272 2.20376,4.19889 4.15581,5.29917 0.32424,0.18277 0.67585,0.30174 1.01377,0.45262 2.82417,1.01753 5.65642,0.27661 8.41354,-0.61286 6.50387,-2.46581 -5.39156,2.19174 -8.12221,3.17878 -0.72856,0.26335 1.41054,-0.66039 2.10099,-1.02484 2.48537,-1.31186 4.82235,-2.88197 7.16138,-4.47031 5.91913,-4.16182 11.25423,-9.18593 16.4747,-14.30364 5.56613,-5.4501 10.5031,-11.55997 15.01081,-18.04193 2.86694,-4.4039 5.57663,-8.99388 7.1924,-14.12709 0.24978,-0.79352 0.43016,-1.61074 0.64523,-2.41611 0.61045,-2.96634 1.06893,-6.396261 -0.44178,-9.166221 -0.21716,-0.39819 -0.51536,-0.73748 -0.77305,-1.10623 -2.55339,-2.305836 -5.17582,-2.00376 -8.22492,-1.27596 -6.67155,2.58272 7.36636,-2.85414 8.42468,-3.217849 0.66499,-0.228534 -1.25864,0.656043 -1.86179,1.035899 -1.94538,1.225186 -3.63823,2.75688 -5.3156,4.3646 -3.51003,3.53359 -5.64303,7.603291 -7.46727,12.334551 -1.59947,4.55063 -1.94884,9.40472 -2.16821,14.22055 -0.16481,4.24355 0.48816,8.43122 1.2277,12.57878 0.5541,2.14922 1.15783,4.8508 3.02566,6.16148 0.27923,0.19592 0.60756,0.29378 0.91135,0.44069 1.1119,0.27277 2.22348,0.23343 3.3179,-0.1243 0.44031,-0.14391 1.72077,-0.7042 1.2864,-0.54046 -10.88493,4.10331 -13.95814,6.03258 -9.12596,3.17518 3.51267,-2.34018 6.41846,-5.49472 9.16527,-8.78594 2.93319,-3.69502 5.35156,-7.78922 7.55477,-12.0235 1.86615,-3.75346 3.4538,-7.65072 4.67881,-11.70109 0.74997,-2.7104 1.44303,-5.50592 1.47138,-8.35321 -0.0364,-0.13173 -0.0951,-0.53184 -0.10919,-0.39518 -0.46704,4.54551 8.15483,-2.366121 12.20955,-3.636431 0.29754,-0.0932 -0.34272,0.56248 -0.47079,0.86806 -0.41421,0.98823 -0.59745,1.924361 -0.85732,2.973951 -0.86919,4.36029 -1.18945,8.80801 -1.40502,13.25255 -0.26345,5.14132 -0.16583,10.28795 0.25248,15.41453 0.33781,3.25183 0.99618,6.46956 2.03439,9.5463 0.61785,1.83101 0.97791,2.49975 1.77376,4.24153 1.74398,3.32868 3.95174,6.40108 6.5998,8.94734 0.53977,0.519 1.11886,0.9879 1.67828,1.48186 3.05049,2.34066 6.32989,4.40781 9.86009,5.78063 0.69995,0.27219 1.41937,0.48151 2.12905,0.72226 3.72768,1.04305 7.62092,1.46103 11.45312,0.91142 0.83431,-0.11966 1.65608,-0.32602 2.48412,-0.48902 0.85268,-0.24867 1.71337,-0.4671 2.55805,-0.74601 0.88393,-0.29188 3.4943,-1.30536 2.62509,-0.9655 -2.91566,1.14004 -5.803,2.37555 -8.76481,3.36615 -0.97692,0.32674 1.8774,-0.88021 2.79471,-1.3694 2.4779,-1.32143 3.24225,-1.90495 5.61699,-3.46968 3.77578,-2.8175 1.91566,-1.35431 5.57915,-4.39139 0,0 11.8862,-2.92428 11.8862,-2.92428 l 0,0 c -3.61109,3.10337 -1.78483,1.60184 -5.47697,4.50712 -2.256,1.56899 -3.14136,2.26005 -5.49984,3.6068 -5.32215,3.03908 -11.77367,5.11657 -17.05202,7.17708 -0.88884,0.34699 -1.79557,0.64066 -2.7073,0.90902 -0.87575,0.25778 -1.76778,0.4456 -2.65167,0.6684 -0.85947,0.13177 -1.71428,0.3061 -2.5784,0.39531 -3.95302,0.40806 -7.94064,-0.13074 -11.73721,-1.34572 -0.72247,-0.27326 -1.45454,-0.51833 -2.16739,-0.81979 -3.58842,-1.51749 -6.93631,-3.67545 -10.03227,-6.14126 -0.5773,-0.52667 -1.17421,-1.02906 -1.73188,-1.58002 -2.71629,-2.68364 -4.9882,-5.90025 -6.75456,-9.38462 -0.32641,-0.72562 -0.67781,-1.43866 -0.97924,-2.17688 -1.56613,-3.83548 -2.44935,-7.96692 -2.92245,-12.11624 -0.39219,-5.17965 -0.54553,-10.37851 -0.33761,-15.57387 0.16672,-4.47972 0.42722,-8.95668 1.07748,-13.38964 0.37153,-2.3199 0.13384,-1.03303 0.57512,-3.10367 0.0813,-0.38164 -0.0863,-0.97724 0.2399,-1.14596 4.22362,-2.184451 11.73909,-9.432551 13.36073,-4.675461 0.0755,0.22142 0.0243,0.47135 0.0364,0.70702 -0.21306,3.009521 -0.86122,5.958161 -1.70484,8.830461 -1.259,4.15468 -2.87754,8.15187 -4.78083,12.0092 -2.20641,4.31274 -4.59882,8.48873 -7.49265,12.31034 -2.67868,3.35718 -5.4841,6.59929 -8.8683,9.14371 -5.33561,3.84304 -1.57296,1.29882 -14.89893,6.52098 -1.71477,0.67198 -3.56212,0.50099 -5.19163,-0.31651 -0.34075,-0.26064 -0.71027,-0.48195 -1.02224,-0.78192 -1.85018,-1.7791 -2.54989,-4.54865 -3.0921,-7.05022 -0.67785,-4.27396 -1.28453,-8.58792 -1.14916,-12.93926 0.20488,-4.96026 0.58081,-9.95376 2.09632,-14.67979 1.76994,-4.92072 3.82529,-9.1313 7.31222,-12.913291 0.55177,-0.58131 1.07804,-1.19247 1.6553,-1.74393 5.81611,-5.556097 13.32852,-8.156435 20.80652,-10.14667 0.58434,-0.08206 1.16483,-0.207959 1.75298,-0.246207 2.13548,-0.138855 4.37154,0.331613 6.10261,1.765855 0.40339,0.334224 0.73255,0.762231 1.09882,1.143346 0.27864,0.464778 0.60229,0.901278 0.8359,1.394305 1.50376,3.173651 1.10732,6.859381 0.37587,10.191192 -0.23336,0.85445 -0.42855,1.72226 -0.70007,2.56336 -1.70832,5.2916 -4.50491,10.04401 -7.48673,14.58388 -4.52889,6.54749 -9.46427,12.75194 -15.03171,18.29856 -5.12036,5.11984 -10.33967,10.16101 -16.09642,14.43869 -2.24447,1.61336 -4.49477,3.19391 -6.86853,4.57926 -0.66177,0.38621 -1.30991,0.81184 -2.01117,1.10504 -4.57716,1.91384 -9.19776,3.70377 -13.81171,5.5109 -0.61581,0.2412 -1.25032,0.42217 -1.87549,0.63326 -3.02729,0.78752 -6.10882,1.28687 -9.0453,-0.17676 -0.36648,-0.22453 -0.75098,-0.4176 -1.09944,-0.67363 -1.99318,-1.46444 -3.24898,-3.80747 -4.24159,-6.1168 -0.57843,-1.62289 -0.74961,-1.96191 -1.15088,-3.67684 -0.66949,-2.86127 -0.87761,-5.82307 -1.10026,-8.75448 -0.24624,-4.97298 -0.41809,-9.95614 -0.0385,-14.9288 0.31293,-4.73417 0.75432,-9.45735 1.23316,-14.17496 0.29109,-3.47269 0.74795,-7.0374 -0.006,-10.47774 -0.16277,-0.46438 -0.28785,-1.1361 -0.72432,-1.4499 -0.44423,-0.31937 -1.21231,0.10379 -1.07411,0.0464 12.49419,-5.181831 14.99191,-6.540641 10.44755,-4.141381 -2.93509,2.10701 -5.34953,4.868231 -7.73354,7.654531 -3.44212,4.26917 -6.69386,8.73744 -9.2505,13.70332 -2.40559,4.7941 -4.57966,9.7479 -6.06841,14.9741 -0.7212,2.51454 -1.42093,5.04184 -2.04308,7.58766 -0.10172,0.41622 0.0819,1.06268 -0.27253,1.25749 -4.12018,2.26507 -8.49748,3.93305 -12.74622,5.89957 -0.18693,-0.27992 -0.41824,-0.53068 -0.56076,-0.83975 -0.20749,-0.44998 -0.26623,-1.52271 -0.28687,-1.93487 -0.0785,-1.56786 0.0204,-3.13583 0.0177,-4.70405 0.0779,-3.96714 0.19533,-7.93504 0.50979,-11.88984 0.37865,-4.53841 0.90369,-9.06435 1.125,-13.6167 0.20592,-3.91544 0.37467,-7.88245 -0.18553,-11.77241 -0.15429,-0.7302 -0.25932,-1.54351 -0.61823,-2.20965 -0.0962,-0.17862 -0.22427,-0.35531 -0.39369,-0.45061 -0.13161,-0.0741 -0.58272,0.0372 -0.44443,-0.0209 10.10805,-4.241141 15.83462,-5.968171 10.77112,-4.415941 -0.81249,0.6157 -1.39223,1.01721 -2.14168,1.7622 -2.10643,2.093881 -3.7276,4.686951 -5.45114,7.133241 -3.53778,5.28387 -6.76007,10.79495 -9.76392,16.45371 -2.89882,5.61609 -5.7484,11.26193 -8.45571,16.98928 -1.79754,3.81546 -3.59795,7.63056 -5.23087,11.5332 -4.3349,1.80535 -8.56308,3.9465 -13.00468,5.41606 -0.31388,0.10386 -0.31681,-0.6446 -0.34596,-0.99881 -0.0216,-0.26217 0.12105,-0.51049 0.20131,-0.75892 0.49206,-1.52303 1.09858,-3.00551 1.64186,-4.50685 1.54982,-4.32289 3.05251,-8.67419 4.01042,-13.20543 0.98624,-4.63448 1.76271,-9.33766 1.61049,-14.11703 -0.16198,-3.4419 -0.33464,-6.98016 -1.83836,-10.09797 -1.25908,-1.97313 -2.35565,-3.16739 -4.70755,-2.65465 3.71911,-1.50341 7.44469,-2.9882 11.15735,-4.51023 0.38682,-0.15858 -0.80047,0.23844 -1.1788,0.41946 -0.43877,0.20994 -0.85513,0.47378 -1.26227,0.74852 -1.58719,1.07104 -3.00889,2.41027 -4.33238,3.83305 -3.45522,3.90064 -6.4968,8.19538 -9.33128,12.64185 -3.06116,5.05748 -5.97873,10.21163 -8.4361,15.65021 -2.35937,4.69816 -4.73867,9.40221 -7.48435,13.85133 -2.06187,3.10331 -4.29258,6.04667 -7.43571,7.92381 -0.83258,0.32788 -11.8753,6.42513 -16.90308,5.46186 -0.8585,-0.16448 -1.18205,-0.36586 -1.98157,-0.7255 -0.30787,-0.19682 -0.6308,-0.3683 -0.92361,-0.59048 -1.4939,-1.13348 -2.49547,-2.84221 -3.35112,-4.54548 -0.39116,-0.95113 -0.61326,-1.40717 -0.88537,-2.4229 -0.527,-1.96725 -0.69721,-4.03365 -0.82732,-6.06692 -0.21206,-3.94329 -0.0375,-7.88118 0.5179,-11.78876 0.64743,-4.63075 1.38655,-9.24368 2.16284,-13.85101 0.56738,-3.21038 1.29027,-6.46881 1.24919,-9.75167 4.193,-1.50321 8.41162,-2.92496 12.579,-4.50962 0.19017,-0.0723 -0.4254,-0.14694 -0.60323,-0.0442 -0.31462,0.1818 -0.52289,0.52857 -0.75019,0.82626 -1.25072,1.63803 -2.11527,3.56612 -3.2606,5.28397 -3.23502,5.28932 -6.49739,10.57654 -10.14089,15.54886 -4.20772,5.53166 -8.5677,10.96136 -13.67635,15.55283 -4.95992,4.25662 -10.1868,8.17516 -16.05801,10.82793 -6.07314,2.40836 -13.40834,5.87945 -20.16109,7.46579 -2.9529,0.69369 -5.96327,1.08606 -8.9862,1.10337 -1.02027,-0.0201 -2.04185,-8.5e-4 -3.06081,-0.0604 -5.09092,-0.2971 -10.08149,-1.55634 -14.68477,-3.95776 -0.88841,-0.52472 -1.80022,-1.00536 -2.66522,-1.57416 -4.37616,-2.87762 -8.1606,-6.75572 -11.159,-11.23616 -1.55284,-2.60183 -2.0303,-3.21364 -3.26027,-6.03959 -2.00004,-4.59522 -3.1652,-9.54502 -3.94275,-14.5369 -0.42121,-3.4776 -0.62609,-4.62642 -0.78532,-8.15363 -0.26398,-5.84776 0.17904,-11.70166 1.12696,-17.46067 0.28846,-1.48994 0.53548,-2.98999 0.8654,-4.4698 1.69762,-7.614841 4.36054,-14.968404 8.04469,-21.713969 2.03369,-3.433613 2.65774,-4.678773 5.01229,-7.882743 3.65683,-4.976064 7.96658,-9.360294 12.76679,-13.018346 1.72938,-1.185143 5.29589,-3.745163 7.21913,-4.60677 4.892,-2.191606 9.87579,-4.135632 14.8407,-6.125442 3.59946,-1.442574 7.33241,-2.382552 11.14693,-2.83688 1.17822,-0.08926 2.35395,-0.234839 3.53465,-0.267807 5.18444,-0.144737 10.32015,0.928746 15.10044,3.094167 0.79098,0.406644 1.59764,0.779261 2.37293,1.219941 3.15834,1.795203 6.06045,4.16008 8.57752,6.88881 1.6769,2.014503 3.1887,4.170362 4.82641,6.217757 0,0 -12.4715,5.423271 -12.4715,5.423271 z"
         id="path2993"
         style="fill:#e20000;fill-opacity:1;stroke:none" />
      <path
         inkscape:connector-curvature="0"
         d="m 489.94891,71.11397 c -1.19547,1.565762 -2.21048,3.256197 -2.85476,5.16901 -0.39458,1.656306 -0.55798,3.045449 0.62765,4.34137 0.96046,0.584137 2.09042,0.537419 3.11228,0.145653 0.32416,-0.124274 1.26601,-0.579746 0.94124,-0.45738 -3.76001,1.41666 -7.50019,2.894354 -11.25029,4.341531 0.32131,-0.212545 0.64262,-0.425098 0.96393,-0.637652 0,0 12.79912,-3.11869 12.79912,-3.11869 l 0,0 c -0.29572,0.286379 -0.59144,0.572759 -0.88715,0.859148 -4.3872,1.803629 -8.75439,3.665521 -13.16161,5.410895 -1.67747,0.664321 -3.57037,0.112702 -4.83769,-1.165383 -0.17657,-0.264212 -0.37887,-0.510319 -0.52971,-0.79263 -0.79664,-1.490918 -0.78207,-3.309509 -0.45512,-4.940562 0.54364,-1.978595 1.42172,-3.814123 2.54717,-5.482127 0,0 12.98494,-3.673183 12.98494,-3.673183 z"
         id="path2995"
         style="fill:#e20000;fill-opacity:1;stroke:none" />
    </g>
  </g>
</svg>
