<?xml version="1.0" encoding="UTF-8" standalone="no"?>
<svg
   xmlns:dc="http://purl.org/dc/elements/1.1/"
   xmlns:cc="http://creativecommons.org/ns#"
   xmlns:rdf="http://www.w3.org/1999/02/22-rdf-syntax-ns#"
   xmlns:svg="http://www.w3.org/2000/svg"
   xmlns="http://www.w3.org/2000/svg"
   xmlns:sodipodi="http://sodipodi.sourceforge.net/DTD/sodipodi-0.dtd"
   xmlns:inkscape="http://www.inkscape.org/namespaces/inkscape"
   version="1.1"
   id="Layer_1"
   x="0px"
   y="0px"
   width="24"
   height="24"
   viewBox="0 0 24 24"
   enable-background="new 0 0 97.179 100"
   xml:space="preserve"
   inkscape:version="0.48.3.1 r9886"
   sodipodi:docname="np_icon_words.svg"><metadata
   id="metadata9"><rdf:RDF><cc:Work
       rdf:about=""><dc:format>image/svg+xml</dc:format><dc:type
         rdf:resource="http://purl.org/dc/dcmitype/StillImage" /></cc:Work></rdf:RDF></metadata><defs
   id="defs7" /><sodipodi:namedview
   pagecolor="#ffffff"
   bordercolor="#666666"
   borderopacity="1"
   objecttolerance="10"
   gridtolerance="10"
   guidetolerance="10"
   inkscape:pageopacity="0"
   inkscape:pageshadow="2"
   inkscape:window-width="1299"
   inkscape:window-height="715"
   id="namedview5"
   showgrid="false"
   inkscape:zoom="5.68"
   inkscape:cx="46.653205"
   inkscape:cy="50"
   inkscape:window-x="65"
   inkscape:window-y="24"
   inkscape:window-maximized="0"
   inkscape:current-layer="Layer_1" />
<path
   d="m 23.572844,4.0730254 -2.99376,-3.0048 c -0.41256,-0.41712005 -1.23576,-0.27192005 -1.82976,0.3204 l -2.74224,2.73288 -3.77256,-3.91728005 H 0.48460403 V 24.204225 H 18.973004 v -14.04696 l 4.2732,-4.2578396 c 0.59232,-0.5904 0.74064,-1.41072 0.32664,-1.8264 z m -11.02344,-0.73752 2.0796,2.15952 -1.13736,1.13448 h -0.94224 v -3.294 z m 0.43128,11.6327996 -4.1359199,1.67496 -0.8892,-0.89232 1.68984,-4.13112 3.3352799,3.34848 z m 4.0452,7.29072 H 2.4298041 V 2.1494254 h 8.6601599 v 5.93904 h 0.93672 l -1.10712,1.10304 H 4.5065241 v 0.9734396 h 5.4367196 l -0.8764796,0.87336 -0.89688,2.19048 h -3.66336 v 0.97368 h 3.26496 l -1.254,3.06408 h -2.01096 v 0.97344 H 14.954204 v -0.97344 H 9.3204441 l 4.2398399,-1.7172 1.35,-1.34664 h 0.04392 v -0.04224 l 2.07192,-2.06424 v 10.1628 z"
   id="path3"
   inkscape:connector-curvature="0"
   style="fill:#333333" />
</svg>